<?xml version="1.0" standalone="no"?>
<!DOCTYPE svg PUBLIC "-//W3C//DTD SVG 20010904//EN"
 "http://www.w3.org/TR/2001/REC-SVG-20010904/DTD/svg10.dtd">
<svg version="1.0" xmlns="http://www.w3.org/2000/svg"
 width="316.000000pt" height="380.077529pt" viewBox="0 0 316.000000 380.077529"
 preserveAspectRatio="xMidYMid meet">
<metadata>
Created by Potrace Professional 1.1m
</metadata>
<g transform="translate(-40.000000,389.077529) rotate(-360.00) scale(0.095238,-0.095238)"
fill="#f4600b" stroke="none">
<path d="M1754 4074 c0 -6 -35 -10 -84 -10 -68 0 -84 -4 -84 -16 0 -13 -15
-16 -69 -16 -38 0 -68 -5 -68 -10 0 -6 -26 -11 -58 -11 -32 0 -57 -5 -57 -10
0 -6 -22 -11 -48 -11 -26 0 -47 -5 -47 -10 0 -6 -21 -11 -47 -11 -26 0 -47 -5
-47 -10 0 -6 -17 -11 -37 -11 -26 0 -37 -5 -37 -16 0 -10 -10 -15 -31 -15 -18
0 -32 -5 -32 -11 0 -6 -17 -10 -37 -10 -20 0 -36 -5 -36 -11 0 -6 -12 -10 -27
-10 -14 0 -26 -5 -26 -11 0 -6 -9 -10 -21 -10 -12 0 -21 -7 -21 -16 0 -9 -9
-16 -21 -16 -12 0 -21 -5 -21 -10 0 -6 -5 -11 -11 -11 -14 0 -84 -70 -83 -84
0 -6 -5 -10 -11 -10 -20 0 -63 -51 -63 -74 0 -11 -5 -21 -10 -21 -6 0 -11 -9
-11 -21 0 -12 -5 -21 -10 -21 -6 0 -11 -21 -11 -47 0 -35 -4 -47 -16 -47 -12
0 -15 -15 -15 -69 0 -38 -5 -68 -11 -68 -6 0 -10 -45 -10 -115 0 -70 -5 -116
-11 -116 -6 0 -10 -35 -10 -84 0 -49 -5 -84 -11 -84 -6 0 -10 -38 -10 -94 0
-77 -3 -95 -16 -95 -9 0 -16 -5 -16 -10 0 -6 7 -11 16 -11 9 0 16 -9 16 -21 0
-12 -7 -21 -16 -21 -13 0 -16 -19 -16 -105 0 -63 -4 -105 -10 -105 -7 0 -11
-54 -11 -142 0 -87 -4 -141 -10 -141 -7 0 -11 -275 -11 -804 l0 -803 142 0
142 0 0 -168 c0 -105 3 -168 10 -168 6 0 11 -13 11 -29 -1 -17 8 -36 20 -44
12 -9 21 -22 22 -29 0 -7 7 -13 15 -13 9 0 16 -5 16 -11 0 -6 9 -10 21 -10 12
0 21 -5 21 -11 0 -6 39 -10 95 -10 56 0 94 4 94 10 0 6 7 10 17 10 18 0 46 25
46 42 0 6 5 11 11 11 24 0 41 32 41 73 1 23 5 43 11 43 6 0 11 52 11 136 l0
137 68 0 c53 0 68 3 68 15 0 14 99 16 830 16 l829 0 0 -121 c0 -73 4 -120 11
-120 5 0 10 -26 10 -58 0 -45 4 -58 16 -58 8 0 16 -8 16 -19 0 -10 9 -25 21
-33 11 -9 21 -20 21 -25 0 -16 29 -39 51 -39 12 0 22 -4 22 -10 0 -6 37 -11
90 -11 81 0 92 3 115 26 14 14 26 29 26 32 0 11 51 58 63 58 6 0 11 9 11 21 0
12 4 21 10 21 7 0 11 63 11 168 l0 168 141 0 142 0 0 840 c0 740 -2 840 -16
840 -13 0 -15 25 -15 163 0 101 -4 163 -11 163 -6 0 -10 33 -10 78 0 46 -5 79
-11 79 -6 0 -10 35 -10 83 -1 57 -5 85 -14 89 -10 4 -9 8 3 17 12 9 13 13 3
17 -9 4 -13 27 -13 63 0 43 -4 57 -16 57 -13 0 -16 15 -16 73 0 42 -4 74 -10
74 -6 0 -11 29 -11 68 0 38 -5 68 -10 68 -6 0 -11 30 -11 68 0 39 -5 69 -10
69 -6 0 -11 21 -11 47 0 26 -5 47 -10 47 -6 0 -11 12 -11 26 0 17 -6 27 -16
27 -8 0 -15 8 -15 18 0 10 -10 26 -21 34 -12 8 -21 19 -21 24 -1 12 -28 39
-39 39 -5 0 -16 9 -24 21 -9 12 -22 21 -30 21 -17 0 -44 25 -44 41 0 6 -12 12
-26 12 -15 0 -26 4 -26 10 0 6 -10 11 -21 11 -12 0 -21 4 -21 10 0 6 -17 11
-37 11 -20 0 -37 4 -37 10 0 6 -17 11 -37 11 -25 0 -36 4 -36 15 0 11 -11 16
-32 16 -17 0 -31 5 -31 11 0 5 -26 10 -58 10 -32 0 -58 5 -58 11 0 5 -17 10
-37 10 -20 0 -36 5 -36 11 0 5 -26 10 -58 10 -32 0 -58 5 -58 11 0 5 -26 10
-58 10 -44 0 -57 4 -57 16 0 12 -17 16 -84 16 -49 0 -84 4 -84 10 0 17 -606
14 -614 -3 -5 -10 -7 -10 -12 0 -7 16 -46 18 -46 3z m630 -283 c0 -7 75 -11
205 -11 204 0 205 0 231 -26 14 -14 26 -35 26 -47 0 -12 4 -21 10 -21 6 0 11
-10 11 -21 0 -12 -5 -21 -11 -21 -6 0 -10 -5 -10 -11 0 -7 -12 -23 -26 -37
l-26 -26 -683 0 c-448 0 -683 4 -683 11 0 5 -26 10 -58 10 -75 0 -89 14 -89
84 0 52 16 84 41 84 6 0 12 5 12 11 0 6 99 10 278 10 178 0 278 4 278 11 0 6
89 10 247 10 157 0 247 -4 247 -10z m866 -446 c20 -20 37 -42 37 -48 0 -6 7
-10 15 -10 12 0 16 -13 16 -48 0 -26 5 -47 11 -47 6 0 10 -33 10 -79 0 -45 4
-78 11 -78 6 0 10 -35 10 -84 0 -49 4 -84 11 -84 6 0 10 -34 10 -79 0 -46 4
-79 11 -79 6 0 10 -31 10 -73 0 -59 3 -74 16 -74 13 0 16 -29 16 -194 0 -166
-3 -194 -16 -194 -9 0 -16 -8 -16 -16 0 -14 -27 -16 -184 -16 -115 0 -183 -4
-183 -10 0 -7 -350 -11 -1029 -11 -680 0 -1029 4 -1029 11 0 6 -46 10 -116 10
-96 0 -115 3 -115 16 0 8 -5 16 -11 16 -6 0 -10 9 -10 21 0 11 -5 21 -11 21
-6 0 -10 29 -10 68 0 38 4 68 10 68 6 0 11 54 11 142 0 87 4 142 10 142 6 0
11 41 11 104 0 73 3 106 13 110 10 5 10 7 0 12 -16 7 -18 36 -3 36 6 0 11 33
11 79 0 63 3 79 15 79 13 0 16 14 16 68 0 38 5 68 11 68 5 0 10 21 10 47 0 26
5 48 11 48 5 0 10 9 10 21 0 28 24 52 52 52 12 0 22 5 22 11 0 6 390 10 1150
10 l1150 0 36 -36z m-2194 -1796 c8 -8 15 -18 15 -21 0 -11 29 -37 41 -37 6 0
12 -9 12 -21 0 -12 4 -21 10 -21 6 0 11 -12 11 -26 0 -15 4 -26 10 -26 6 0 11
-22 11 -48 0 -26 -5 -47 -11 -47 -6 0 -10 -12 -10 -27 0 -28 -22 -57 -42 -57
-6 0 -11 -5 -11 -11 0 -24 -52 -63 -84 -62 -17 0 -31 -5 -31 -11 0 -6 -22 -10
-48 -10 -26 0 -47 4 -47 10 0 6 -13 11 -29 11 -17 0 -36 8 -44 21 -9 11 -22
21 -29 21 -7 0 -13 7 -13 15 0 9 -5 16 -11 16 -6 0 -10 9 -10 21 0 12 -5 21
-11 21 -6 0 -10 9 -10 21 0 12 -5 21 -11 21 -6 0 -10 21 -10 47 0 26 4 48 10
48 6 0 11 11 11 26 0 14 4 26 10 26 6 0 11 7 11 16 0 19 24 47 41 47 6 0 11 7
11 16 0 9 9 16 21 16 12 0 21 4 21 10 0 17 198 13 216 -5z m2231 5 c0 -6 11
-10 26 -10 14 0 26 -6 26 -12 0 -6 14 -25 32 -41 17 -16 31 -37 31 -46 0 -9 7
-17 16 -17 12 0 16 -16 16 -84 0 -68 -4 -84 -16 -84 -9 0 -16 -9 -16 -21 0
-12 -5 -21 -10 -21 -6 0 -11 -5 -11 -11 0 -17 -28 -41 -46 -41 -10 0 -17 -5
-17 -11 0 -6 -12 -10 -26 -10 -15 0 -26 -5 -26 -11 0 -6 -26 -10 -58 -10 -32
0 -58 4 -58 10 0 6 -9 11 -21 11 -12 0 -21 4 -21 10 0 6 -10 11 -22 11 -23 0
-51 22 -51 41 0 6 -5 11 -11 11 -6 0 -10 9 -10 21 0 12 -7 21 -16 21 -13 0
-16 16 -16 84 0 68 3 84 16 84 8 0 16 8 16 17 0 9 14 30 31 46 17 16 32 35 32
41 0 6 11 12 26 12 14 0 26 4 26 10 0 6 33 11 79 11 45 0 79 -5 79 -11z"/>
</g>
</svg>
