<?xml version="1.0" standalone="no"?>
<!DOCTYPE svg PUBLIC "-//W3C//DTD SVG 20010904//EN"
 "http://www.w3.org/TR/2001/REC-SVG-20010904/DTD/svg10.dtd">
<svg version="1.0" xmlns="http://www.w3.org/2000/svg"
 width="224.000000pt" height="369.000000pt" viewBox="0 0 224.000000 369.000000"
 preserveAspectRatio="xMidYMid meet">
<metadata>
Created by Potrace Professional 1.1m
</metadata>
<g transform="translate(-87.000000,385.000000) rotate(-360.00) scale(0.095238,-0.095238)"
fill="#f4600b" stroke="none">
<path d="M1614 4019 c-56 -48 -238 -226 -238 -232 0 -4 14 -7 32 -7 31 0 62
20 62 41 0 5 9 13 21 17 12 3 21 11 21 17 0 14 27 41 41 41 6 0 12 7 12 15 0
9 4 16 10 16 6 0 25 14 41 30 38 39 88 51 121 29 37 -24 174 -161 174 -174 0
-6 5 -11 11 -11 7 0 30 -19 52 -42 22 -23 45 -42 52 -42 6 0 11 -6 11 -13 0
-8 9 -21 21 -29 14 -10 21 -27 21 -50 0 -19 -1 -35 -3 -36 -1 -1 -217 -5 -479
-8 -368 -4 -478 -9 -481 -19 -3 -7 -14 -13 -25 -13 -11 0 -20 -5 -20 -11 0 -6
-16 -27 -37 -47 -20 -20 -39 -49 -43 -63 -3 -14 -13 -26 -21 -26 -8 0 -14 -9
-14 -21 0 -12 -5 -21 -11 -21 -6 0 -10 -14 -10 -31 0 -18 -5 -32 -11 -32 -7 0
-10 -448 -10 -1323 l0 -1323 42 0 c23 0 42 5 42 11 0 6 11 16 26 22 14 7 26
17 26 22 0 30 33 40 140 39 122 0 122 0 123 -73 0 -34 4 -41 31 -53 l32 -13 0
-93 0 -93 47 0 47 0 0 93 c0 76 3 95 17 100 21 8 1184 8 1205 0 14 -5 17 -24
17 -100 l0 -93 42 0 42 0 0 92 0 93 37 13 c33 12 37 17 37 54 0 73 0 73 121
73 66 0 110 -4 110 -10 0 -6 7 -10 15 -10 9 0 16 -4 16 -8 0 -5 11 -21 25 -37
20 -23 34 -29 68 -29 l44 0 0 1318 c0 871 -4 1318 -11 1318 -6 0 -10 16 -10
36 0 26 -5 37 -16 37 -9 0 -16 9 -16 20 0 12 -5 24 -10 27 -6 4 -11 14 -11 23
0 8 -29 45 -66 80 l-65 65 -457 3 c-251 2 -467 5 -480 8 -19 4 -24 13 -24 37
0 32 20 63 40 63 6 0 13 9 16 21 3 11 13 21 22 21 9 0 17 5 17 11 0 13 26 41
39 41 5 0 15 11 21 25 7 14 21 29 33 33 12 3 22 11 22 17 0 14 27 41 41 41 6
0 12 7 12 16 0 9 9 19 21 22 11 3 21 10 21 16 0 5 7 18 17 28 20 20 110 23
117 3 2 -7 10 -12 18 -12 8 0 17 -9 21 -21 3 -12 13 -21 21 -21 9 0 16 -5 16
-11 0 -12 25 -41 35 -41 3 0 22 -17 43 -37 20 -20 41 -37 47 -37 6 0 11 -5 11
-10 0 -6 12 -11 26 -11 22 0 25 3 17 24 -5 13 -18 28 -30 34 -13 7 -40 31 -63
56 -22 24 -46 44 -53 44 -7 0 -12 5 -12 11 0 13 -27 41 -40 41 -5 0 -19 12
-32 26 l-23 27 -450 0 -450 0 -27 -24z m759 -26 c0 -10 -15 -30 -33 -44 -55
-44 -93 -82 -93 -94 0 -7 -7 -12 -15 -12 -8 0 -21 -8 -29 -18 -8 -10 -28 -26
-45 -34 -38 -20 -58 -37 -58 -52 0 -6 -5 -11 -10 -11 -6 0 -11 7 -11 15 0 9
-7 16 -16 16 -8 0 -15 4 -15 9 0 5 -15 15 -32 23 -17 7 -31 19 -31 26 0 7 -10
16 -21 19 -12 3 -21 13 -21 22 0 9 -6 17 -12 17 -6 0 -25 14 -41 31 -16 17
-35 32 -41 32 -7 0 -15 7 -18 15 -4 9 -13 16 -21 16 -8 0 -14 7 -14 16 0 13
40 16 280 18 155 2 285 4 289 6 4 1 8 -6 8 -16z m-220 -622 c0 -6 7 -11 16
-11 19 0 47 -25 47 -41 0 -6 7 -11 15 -11 9 0 16 -10 16 -21 0 -12 5 -21 11
-21 5 0 10 -26 10 -58 0 -31 -5 -60 -10 -63 -6 -4 -11 -16 -11 -27 0 -11 -6
-20 -13 -20 -8 0 -21 -10 -29 -21 -8 -12 -21 -21 -29 -21 -7 0 -13 -5 -13 -11
0 -6 -33 -10 -79 -10 -45 0 -78 4 -78 10 0 6 -8 11 -17 11 -19 0 -56 39 -57
60 0 7 -5 13 -10 13 -7 0 -11 33 -11 79 0 43 4 79 9 79 5 0 15 11 23 26 7 14
19 26 25 26 7 0 19 9 27 21 13 17 27 21 86 21 41 0 72 -5 72 -10z m530 -623
c3 -13 4 -208 3 -433 l-3 -409 -583 -3 c-321 -2 -593 0 -606 3 l-24 5 0 415
c0 317 3 419 13 430 11 13 107 15 604 16 l590 0 6 -24z m-1352 -414 l-3 -397
-30 -3 c-17 -2 -41 1 -53 7 -12 6 -45 13 -74 15 -29 3 -54 11 -56 17 -2 6 -15
12 -29 12 l-25 0 0 317 c0 175 2 328 6 340 4 16 20 25 63 36 31 7 57 17 57 22
0 5 13 9 30 9 17 0 34 5 38 11 3 5 23 10 42 10 l37 0 -3 -396z m1588 386 c0
-6 14 -11 32 -11 17 0 31 -5 31 -10 0 -6 8 -11 18 -11 10 0 38 -7 61 -15 l42
-15 3 -337 c2 -335 2 -336 -20 -336 -12 0 -29 -8 -37 -16 -10 -10 -35 -16 -63
-16 -25 0 -46 -5 -46 -10 0 -6 -26 -11 -58 -11 l-57 0 0 399 0 399 47 0 c26 0
47 -5 47 -10z m-1281 -1349 c0 -54 -3 -106 -6 -115 -6 -15 -31 -17 -174 -17
-132 0 -171 3 -183 15 -20 20 -21 179 -2 200 10 12 51 15 189 16 l176 0 0 -99z
m1260 -16 l0 -116 -178 0 -179 0 0 116 0 115 179 0 178 0 0 -115z"/>
<path d="M1349 354 c-6 -7 -19 -41 -29 -76 -10 -34 -23 -64 -28 -66 -6 -2 -11
-13 -11 -24 0 -18 8 -20 95 -20 l94 0 0 100 0 100 -55 -1 c-30 0 -60 -6 -66
-13z"/>
<path d="M2709 268 l0 -100 89 0 c54 0 90 4 90 11 0 21 -27 94 -35 94 -4 0 -7
12 -7 26 0 15 -5 27 -11 27 -6 0 -10 9 -10 21 0 18 -7 21 -58 21 l-58 0 0
-100z"/>
</g>
</svg>
