<?xml version="1.0" standalone="no"?>
<!DOCTYPE svg PUBLIC "-//W3C//DTD SVG 20010904//EN"
 "http://www.w3.org/TR/2001/REC-SVG-20010904/DTD/svg10.dtd">
<svg version="1.0" xmlns="http://www.w3.org/2000/svg"
 width="305.000000pt" height="380.000000pt" viewBox="0 0 305.000000 380.000000"
 preserveAspectRatio="xMidYMid meet">
<metadata>
Created by Potrace Professional 1.1m
</metadata>
<g transform="translate(-44.000000,391.000000) rotate(-360.00) scale(0.095238,-0.095238)"
fill="#f4600b" stroke="none">
<path d="M1964 4095 c0 -6 -51 -10 -132 -10 -80 0 -131 -5 -131 -11 0 -6 -30
-10 -68 -10 -54 0 -68 -4 -68 -16 0 -12 -13 -16 -48 -16 -26 0 -47 -5 -47 -10
0 -6 -21 -11 -47 -11 -26 0 -47 -5 -47 -10 0 -6 -17 -11 -37 -11 -20 0 -37 -5
-37 -10 0 -6 -14 -11 -31 -11 -18 0 -32 -5 -32 -10 0 -6 -17 -11 -37 -11 -25
0 -36 -5 -36 -16 0 -8 -10 -15 -21 -15 -12 0 -21 -5 -21 -11 0 -6 -17 -10 -37
-10 -20 0 -37 -5 -37 -11 0 -6 -9 -10 -21 -10 -12 0 -21 -5 -21 -11 0 -6 -12
-10 -26 -10 -17 0 -26 -6 -26 -16 0 -9 -10 -16 -21 -16 -12 0 -21 -5 -21 -10
0 -6 -8 -11 -16 -11 -9 0 -16 -5 -16 -10 0 -6 -9 -11 -21 -11 -12 0 -21 -5
-21 -10 0 -6 -9 -11 -21 -11 -12 0 -21 -5 -21 -10 0 -6 -7 -11 -16 -11 -8 0
-15 -7 -15 -16 0 -8 -5 -15 -11 -15 -6 0 -10 -34 -10 -79 l0 -79 1317 0 1318
0 0 79 c0 45 -4 79 -10 79 -6 0 -11 5 -11 11 0 18 -28 41 -49 41 -11 0 -27 9
-35 21 -8 12 -24 21 -34 21 -10 0 -18 5 -18 11 0 5 -12 10 -27 10 -16 0 -26 6
-26 16 0 9 -9 16 -21 16 -12 0 -21 4 -21 10 0 6 -12 11 -26 11 -15 0 -26 4
-26 10 0 6 -10 11 -21 11 -12 0 -21 4 -21 10 0 6 -17 11 -37 11 -26 0 -37 4
-37 15 0 9 -9 16 -21 16 -12 0 -21 5 -21 11 0 5 -17 10 -37 10 -20 0 -36 5
-36 11 0 5 -22 10 -48 10 -26 0 -47 5 -47 11 0 5 -14 10 -31 10 -18 0 -32 5
-32 11 0 5 -28 10 -63 10 -49 0 -63 4 -63 16 0 12 -15 16 -68 16 -39 0 -68 4
-68 10 0 6 -46 11 -116 11 -70 0 -115 4 -115 10 0 6 -46 11 -116 11 -70 0
-115 -5 -115 -11z m-147 -257 c0 -14 36 -16 267 -16 l268 0 0 -58 0 -57 -289
0 -288 0 0 57 c0 32 4 58 10 58 6 0 11 7 11 16 0 8 4 16 10 16 6 0 11 -8 11
-16z"/>
<path d="M746 2625 c0 -560 3 -850 10 -850 6 0 11 -12 11 -27 0 -14 5 -26 11
-26 16 0 41 -28 41 -47 0 -9 5 -16 11 -16 5 0 10 -12 10 -26 0 -15 5 -26 11
-26 5 0 10 -10 10 -21 0 -12 5 -21 11 -21 5 0 10 -12 10 -27 0 -16 6 -26 16
-26 8 0 16 -8 16 -19 -1 -10 9 -25 21 -33 11 -9 21 -26 21 -40 0 -13 4 -23 10
-23 6 0 11 -10 11 -21 0 -12 7 -21 15 -21 13 0 16 -15 16 -69 l0 -68 42 0 42
0 0 58 c0 44 4 58 16 58 8 0 16 4 16 10 0 6 14 11 31 11 17 0 32 4 32 10 0 6
21 11 47 11 26 0 47 4 47 10 0 6 17 11 37 11 25 0 37 4 37 15 0 11 11 16 36
16 20 0 37 5 37 11 0 5 19 10 42 10 23 0 42 5 42 11 0 5 17 10 37 10 20 0 37
5 37 11 0 5 14 10 32 10 49 0 62 20 62 99 l0 69 37 0 37 0 0 735 0 735 315 0
315 0 0 -735 0 -735 31 0 32 0 0 -73 c0 -59 3 -74 15 -74 9 0 16 -5 16 -10 0
-6 14 -11 32 -11 17 0 31 -5 31 -10 0 -6 17 -11 37 -11 20 0 37 -5 37 -10 0
-6 21 -11 47 -11 26 0 47 -5 47 -10 0 -6 14 -11 32 -11 21 0 31 -5 31 -16 0
-11 11 -15 37 -15 20 0 37 -5 37 -11 0 -6 21 -10 47 -10 26 0 47 -5 47 -11 0
-6 15 -10 32 -10 47 0 63 -22 63 -84 l0 -53 47 0 47 0 0 68 c0 39 5 69 11 69
5 0 10 9 10 21 0 11 5 21 11 21 5 0 10 7 10 15 0 9 5 16 11 16 5 0 10 9 10 21
0 12 7 21 16 21 9 0 16 9 16 21 0 12 4 21 10 21 6 0 11 12 11 26 0 15 4 27 10
27 6 0 11 9 11 21 0 11 4 21 10 21 6 0 11 11 11 26 0 14 5 26 11 26 16 0 41
28 41 47 0 9 5 16 11 16 5 0 10 12 10 26 0 15 5 27 11 27 6 0 10 290 10 850
l0 851 -1318 0 -1317 0 0 -851z m819 257 l0 -225 -221 0 -220 0 0 225 0 226
220 0 221 0 0 -226z m1449 0 l0 -225 -226 0 -226 0 0 225 0 226 226 0 226 0 0
-226z"/>
<path d="M1796 2809 l0 -268 267 0 268 0 0 268 0 268 -268 0 -267 0 0 -268z"/>
<path d="M2310 2489 c0 -7 -93 -11 -257 -11 l-257 0 0 -409 0 -410 267 0 268
0 0 420 c0 273 -4 420 -10 420 -6 0 -11 -5 -11 -10z"/>
<path d="M1754 1596 c0 -6 -8 -10 -16 -10 -11 0 -16 -12 -16 -37 l0 -37 341 0
342 0 0 32 c0 63 0 63 -341 63 -200 0 -310 -4 -310 -11z"/>
<path d="M977 1118 l0 -47 -184 0 -184 0 0 -47 c0 -26 -5 -47 -10 -47 -6 0
-11 -26 -11 -58 0 -45 -4 -58 -16 -58 -12 0 -15 -13 -15 -58 l0 -57 162 0
c102 0 163 -4 163 -11 0 -6 -5 -10 -10 -10 -6 0 -11 -22 -11 -48 0 -26 -5 -47
-10 -47 -6 0 -11 -9 -11 -21 0 -20 -7 -21 -163 -21 l-162 0 0 -47 c0 -26 -5
-47 -11 -47 -6 0 -10 -26 -10 -58 0 -45 -4 -58 -16 -58 -12 0 -16 -12 -16 -47
l0 -47 142 0 142 0 0 -48 c0 -26 -5 -47 -11 -47 -6 0 -10 -17 -10 -37 l0 -36
183 0 c116 0 184 3 184 10 0 6 7 11 16 11 8 0 16 7 16 15 0 9 -8 16 -16 16
-12 0 -16 13 -16 58 l0 58 971 0 972 0 0 -84 0 -84 199 0 200 0 0 26 c0 16 -6
26 -16 26 -11 0 -16 11 -16 32 0 17 -5 31 -10 31 -6 0 -11 12 -11 26 l0 27
142 0 142 0 0 57 c0 32 -5 58 -11 58 -6 0 -10 26 -10 58 0 44 -4 58 -16 58
-11 0 -16 11 -16 36 l0 37 -147 0 c-91 0 -147 4 -147 11 0 5 -7 10 -16 10 -10
0 -15 11 -15 32 0 17 -5 31 -11 31 -6 0 -10 17 -10 37 l0 37 152 0 152 0 0 57
c0 32 -5 58 -10 58 -6 0 -11 32 -11 74 0 42 -4 73 -10 73 -6 0 -11 14 -11 32
l0 31 -178 0 -179 0 0 26 c0 15 -5 27 -10 27 -6 0 -11 9 -11 21 0 18 -7 21
-58 21 l-57 0 0 -48 0 -47 -972 0 -971 0 0 47 0 48 -58 0 -57 0 0 -48z m2058
-451 l0 -79 -956 0 c-630 0 -955 4 -955 11 0 5 -8 10 -16 10 -13 0 -16 15 -16
68 l0 69 971 0 972 0 0 -79z"/>
</g>
</svg>
